# xmcd CD database file
#
# Track frame offsets:
#	150
#	4050
#	22802
#	43940
#	64080
#	80807
#	112130
#	125965
#	153825
#	174317
#	191075
#	208057
#
# Disc length: 2837 seconds
#
# Revision: 1
# Processed by: cddbd v1.5.2PL0 Copyright (c) Steve Scherf et al.
# Submitted via: CDex 1.70beta2
#
DISCID=a70b130c
DTITLE=people - ツインビーPARADISE 熱唱!ボーカルバトル編
DYEAR=1994
DGENRE=Vocal
TTITLE0=db-FM プロローグ
TTITLE1=HOPE （國府田マリ子）
TTITLE2=風の贈り物 （國府田マリ子）
TTITLE3=Sky Blue （國府田マリ子）
TTITLE4=ワルモンR&R （岸野幸正＆沼田佑介）
TTITLE5=星を往く船 -惑星メルに平和の戻る日- （椎名へきる）
TTITLE6=Twin memories -語り- （國府田マリ子）
TTITLE7=Fantasian -パラダイスMIX- （國府田マリ子）
TTITLE8=夢を追いかけて （田中真弓）
TTITLE9=Beeなポーズで -霧の向こうのパラダイス- （伊藤美紀＆西原久美子）
TTITLE10=ラッキ・ラッパー・パーティ （葉山宏治＆國府田マリ子）
TTITLE11=db-FM エピローグ
EXTD=YEAR: 1994
EXTT0=
EXTT1=
EXTT2=
EXTT3=
EXTT4=
EXTT5=
EXTT6=
EXTT7=
EXTT8=
EXTT9=
EXTT10=
EXTT11=
PLAYORDER=
